<?xml version="1.0" encoding="utf-8"?>
<!-- Generator: Adobe Illustrator 21.1.0, SVG Export Plug-In . SVG Version: 6.00 Build 0)  -->
<svg version="1.1" id="圖層_1" xmlns="http://www.w3.org/2000/svg" xmlns:xlink="http://www.w3.org/1999/xlink" x="0px" y="0px"
	 viewBox="0 0 43 40" style="enable-background:new 0 0 43 40;" xml:space="preserve">
<style type="text/css">
	.st0{fill:#FFFFFF;}
</style>
<path class="st0" d="M42.6,16C42.1,7.1,32.8,0,21.5,0C9.8,0,0.4,7.5,0.4,16.8c0,8.5,8,15.6,18.4,16.7c0.6,0.1,1.1,0.6,1,1.3l-0.4,4
	c-0.1,0.9,0.8,1.6,1.6,1.2c8.8-4.2,14-8.6,17.1-12.3c0.6-0.7,2.4-3.3,2.8-4c0.8-1.4,1.4-3,1.6-4.6c0.1-0.5,0.1-0.9,0.2-1.3
	C42.7,17.1,42.6,16.3,42.6,16z M13.1,22.4H8.8c-0.6,0-1.1-0.5-1.1-1.1v-8.2c0-0.6,0.5-1.1,1.1-1.1c0.6,0,1.1,0.5,1.1,1.1v7.1h3.2
	c0.6,0,1.1,0.5,1.1,1.1S13.7,22.4,13.1,22.4z M17.4,21.5c0,0.5-0.4,0.8-0.8,0.8h-0.5c-0.5,0-0.8-0.4-0.8-0.8v-8.6
	c0-0.5,0.4-0.8,0.8-0.8h0.5c0.5,0,0.8,0.4,0.8,0.8V21.5z M27.4,21.3c0,0.6-0.5,1.1-1.1,1.1c-0.3,0-0.5-0.1-0.7-0.3
	c-0.1-0.1-4.4-5.7-4.4-5.7v5c0,0.6-0.5,1.1-1.1,1.1c-0.6,0-1.1-0.5-1.1-1.1v-8.1c0-0.6,0.5-1.1,1-1.1c0.3,0,0.6,0.1,0.8,0.4
	c0.1,0.1,4.4,5.7,4.4,5.7v-5c0-0.6,0.5-1.1,1.1-1.1c0.6,0,1.1,0.5,1.1,1.1V21.3z M34.5,16.1c0.6,0,1.1,0.5,1.1,1.1s-0.5,1.1-1.1,1.1
	h-3.2v1.9h3.2c0.6,0,1.1,0.5,1.1,1.1s-0.5,1.1-1.1,1.1h-4.3c-0.6,0-1.1-0.5-1.1-1.1v-8.2c0-0.6,0.5-1.1,1.1-1.1h4.3
	c0.6,0,1.1,0.5,1.1,1.1c0,0.6-0.5,1.1-1.1,1.1h-3.2v1.9H34.5z"/>
</svg>
