<?xml version="1.0" encoding="utf-8"?>
<!-- Generator: Adobe Illustrator 21.1.0, SVG Export Plug-In . SVG Version: 6.00 Build 0)  -->
<svg version="1.1" id="圖層_1" xmlns="http://www.w3.org/2000/svg" xmlns:xlink="http://www.w3.org/1999/xlink" x="0px" y="0px"
	 viewBox="0 0 36 36" style="enable-background:new 0 0 36 36;" xml:space="preserve">
<style type="text/css">
	.st0{fill:#FFFFFF;}
</style>
<g>
	<g>
		<path class="st0" d="M18,0C8.1,0,0,8.1,0,18c0,9.9,8.1,18,18,18c9.9,0,18-8.1,18-18C36,8.1,27.9,0,18,0z M22.5,18.6h-2.9
			c0,4.7,0,10.4,0,10.4h-4.3c0,0,0-5.7,0-10.4h-2.1v-3.7h2.1v-2.4c0-1.7,0.8-4.4,4.4-4.4l3.2,0v3.6c0,0-2,0-2.3,0s-0.9,0.2-0.9,1
			v2.2h3.3L22.5,18.6z"/>
	</g>
</g>
</svg>
