<?xml version="1.0" encoding="utf-8"?>
<!-- Generator: Adobe Illustrator 21.1.0, SVG Export Plug-In . SVG Version: 6.00 Build 0)  -->
<svg version="1.1" id="圖層_1" xmlns="http://www.w3.org/2000/svg" xmlns:xlink="http://www.w3.org/1999/xlink" x="0px" y="0px"
	 viewBox="0 0 168 60" style="enable-background:new 0 0 168 60;" xml:space="preserve">
<style type="text/css">
	
		.st0{fill-rule:evenodd;clip-rule:evenodd;fill:#FFFFFF;stroke:#FFFFFF;stroke-width:0.8571;stroke-linecap:round;stroke-linejoin:round;stroke-miterlimit:10;}
	.st1{fill:#3E454F;}
	.st2{fill:#9A9497;}
	.st3{fill-rule:evenodd;clip-rule:evenodd;fill:#D80C18;}
	.st4{fill-rule:evenodd;clip-rule:evenodd;fill:#3E454F;}
	.st5{fill:none;}
</style>
<g>
	<path class="st0" d="M44.9,24.6c-0.2-0.2-0.3-0.4-0.5-0.6c-0.1-0.2-0.2-0.5-0.4-0.6c-0.1-0.1-0.3-0.2-0.4-0.2
		c-0.2,0-0.3,0.2-0.5,0.2c-0.3,0.1-0.4,0.1-0.5,0.4c-0.1,0.4-0.2,0.8-0.3,1.2c-0.1,0.3-0.2,0.5-0.3,0.8c-0.1,0.3-0.2,0.4-0.5,0.6
		c-0.2,0.1-0.1,0.2-0.2,0.4c-0.1,0.2-0.2,0.2-0.4,0.3c-0.1,0.1-0.1,0.2-0.1,0.2c-0.1,0.1-0.2,0.1-0.3,0.2c-0.1,0.1-0.1,0.3-0.2,0.5
		c-0.1,0.1-0.1,0.1-0.3,0.2c-0.2,0.2-0.2,0.4-0.4,0.6c-0.1,0.1-0.2,0.1-0.3,0.2c0,0.1,0,0.2,0,0.2c0,0.1-0.1,0-0.1,0.1
		c-0.1,0.1-0.1,0.1-0.2,0.2c-0.1,0.3-0.2,0.2-0.4,0.4c-0.1,0.1-0.1,0.3-0.3,0.4c-0.2,0.2-0.4,0.4-0.5,0.6c-0.1,0.2-0.2,0.4-0.4,0.6
		c-0.1,0.1-0.1,0.1-0.2,0.2c0,0.1,0,0.1,0,0.2c-0.1,0.1-0.1,0-0.2,0.1c-0.1,0.1-0.1,0.3-0.3,0.4c-0.1,0.1-0.3,0.1-0.3,0.2
		c-0.1,0.3,0,0.4-0.3,0.4c-0.3,0.1-0.3,0.3-0.5,0.4c-0.1,0.1-0.3,0.1-0.3,0.2c-0.1,0.1-0.1,0.2-0.1,0.3c-0.1,0.2-0.3,0.3-0.5,0.4
		c-0.3,0.2-0.5,0.3-0.7,0.6c-0.2,0.2-0.3,0.1-0.5,0.3c-0.4,0.2-0.6,0.5-0.9,0.8c-0.1,0.1-0.1,0.2-0.3,0.3c-0.1,0-0.3,0-0.4,0.1
		c-0.3,0.1-0.5,0.3-0.6,0.5c-0.2,0.2-0.7,0.1-0.9,0.2c-0.1,0.1-0.1,0.2-0.2,0.2c-0.1,0.1-0.3,0-0.4,0.1c-0.1,0-0.3,0.3-0.3,0.3
		c-0.2,0-0.3-0.1-0.5,0.1c-0.1,0.1-0.2,0.2-0.4,0.2c-0.2,0-0.5,0-0.7,0.1c-0.2,0.1-0.2,0.4-0.5,0.4c-0.2,0-0.2,0-0.4,0.1
		c-0.1,0.1-0.3,0.1-0.4,0.2c-0.1,0-0.3,0-0.4,0c-0.3,0-0.5,0-0.8,0c-0.2,0-0.7,0-0.9,0.1c-0.2,0.1-0.2,0.1-0.4,0.1
		c-0.2,0-0.3,0-0.4,0.2c-0.1,0.2-0.1,0.1-0.3,0.2c-0.2,0-0.6-0.1-0.8,0c0,0,0,0.1-0.1,0.1c-0.2,0.1-0.4-0.1-0.7,0
		c-0.3,0.1-0.4,0.1-0.6,0c-0.2,0-0.5-0.1-0.7-0.1c-0.3,0.1-0.6,0.1-0.9,0.2c-0.2,0-0.7,0.1-0.9-0.1c-0.1-0.1-0.1-0.1-0.3-0.1
		c-0.4-0.1-0.7-0.3-1.1-0.5c-0.1-0.1-0.3,0-0.5-0.1c-0.1,0-0.1-0.1-0.1-0.1c-0.1-0.1-0.2-0.1-0.3-0.1c-0.1-0.1-0.2-0.2-0.3-0.3
		c-0.1,0-0.3,0-0.4,0c-0.2,0-0.5,0-0.7-0.2c0-0.1,0.1-0.1,0-0.2c0,0-0.2,0-0.2,0c-0.2-0.1-0.3-0.2-0.5-0.2c-0.2,0-0.5,0.2-0.6,0
		c0,0,0-0.1,0-0.2c-0.4-0.7-0.1-0.7,0.3-1c0.4-0.3,0.7-0.6,1-0.9c0.3-0.3,0.4-0.4,0.3-0.8c0.5-0.1,0.2-1,0.1-1.3
		c-0.1-0.1-0.2-0.2-0.2-0.3c0-0.2,0.1-0.4,0.3-0.3c0,0,0.1-0.1,0.1-0.1c0,0,0.1,0,0.1-0.1c0.1,0,0.1,0,0.2,0c0.1,0,0.2,0,0.4,0
		c0.1,0,0.1,0,0.2-0.1c0.1-0.1,0.1-0.2,0.2-0.2c0.1,0,0.1,0,0.2,0c0.1,0,0-0.1,0-0.1c0-0.4,0.5-0.3,0.8-0.3c0.3-0.1,0.4-0.2,0.6-0.4
		c0.4-0.4,0.8-0.8,1.2-1.2c0,0,0.2,0,0.3-0.1c0.2-0.2,0.2-0.5,0.3-0.7c0.2-0.3,0.4-0.5,0.7-0.8c0.1-0.1,0.2,0,0.3-0.1
		c0.1-0.1,0.1-0.2,0.1-0.3c0.1-0.1,0.3-0.1,0.4-0.2c0.1-0.1,0.2-0.3,0.3-0.5c0.1-0.2,0-0.2,0.2-0.3c0.1-0.1,0.1-0.2,0.2-0.3
		c0.1-0.2,0.2-0.1,0.4-0.2c0.2-0.1,0.2-0.1,0.3-0.2c0.2-0.3,0.4-0.6,0.6-1c0.1-0.1,0.1-0.3,0.2-0.4c0.5-0.5,0.7-0.9,1.1-1.6
		c0.2-0.4,0.2-0.9,0.5-1.4c0.2-0.3,0.4-0.6,0.5-1c0.1-0.4,0-0.5-0.1-0.9c0-0.1,0-0.3,0.1-0.5c0.1-0.1,0.1-0.2,0.1-0.4
		c0-0.1-0.1-0.3-0.1-0.3c0-0.2,0.1-0.5-0.2-0.5c-0.2,0-0.4,0-0.5-0.1c-1.1-0.5-2.4-0.1-3.5-0.7c-0.9-0.5-1.5-0.7-2.6-0.6
		c-0.2,0-0.3,0-0.5,0c-0.1,0-0.1,0-0.2,0c0,0-0.1-0.1-0.1-0.1c0,0-0.1-0.1-0.1-0.1c-0.1,0-0.1-0.1-0.2-0.1c-0.2,0-0.4,0-0.5,0
		c-0.1,0-0.3,0-0.5,0c-0.1,0-0.1-0.1-0.2-0.1c-0.4-0.4-1-0.8-1.5-1c-0.2-0.8-2.4-1.4-1.3-2.4c0.1-0.1,0.2-0.1,0.3-0.2
		c0.3-0.2,0.7-0.4,1-0.4c0.5,0,1,0.2,1.5,0.3c0.2,0.1,0.5,0.1,0.8,0.2c0.2,0.1,0.3,0.2,0.6,0.3c0.3,0.1,0.7,0.1,1,0.3
		c0.4,0.2,0.8,0.5,1.2,0.5c0.2,0,0.4-0.1,0.7-0.1c0.1,0,0.1,0.1,0.2,0.1c0.3,0.1,0.5,0.1,0.8,0.3c0.1,0.1,0.2,0.1,0.3,0.1
		c0.1,0,0.3,0,0.4,0c0.1,0,0.2,0.1,0.3,0.2c0.1,0.1,0.2,0.1,0.4,0.1c0.4,0.1,0.8,0.2,1.1,0.2c0.3,0.1,0.6,0.2,1,0.2
		c0.6,0,0.9,0.6,1.4,0.7c0.3,0,0.5,0,0.8,0.1c0.2,0.1,0.4,0.3,0.7,0.3c0.6,0.1,1.2-0.3,1.9-0.1c0.1,0,0.2,0,0.3,0.1
		c0.2,0.1,0.2,0.2,0.5,0.3c0.2,0,0.4,0.1,0.6,0.1c0.3,0.1,0.7,0.1,1,0.2c0.4,0.1,0.8,0.4,1.2,0.5c0.8,0.2,1.5,0.2,2.3,0.5
		c0.9,0.4,1.8,0.8,2.7,1.1c0.4,0.1,0.7,0.2,1.1,0.3c0.3,0.1,0.6,0.3,0.9,0.4c0.1,0,0.2,0,0.3,0.1c0.1,0.1,0.2,0.2,0.3,0.2
		c0.1,0,0.2-0.1,0.3,0c0.1,0,0.1,0.1,0.1,0.2c0.2,0.1,0.3,0.1,0.5,0.2c0.1,0,0.2,0,0.3,0.1c0.1,0,0.1,0.1,0.2,0.2c0.1,0,0.3,0,0.4,0
		c0.3,0.1,0.6,0.2,0.9,0.3c0.2,0.1,0.2,0.2,0.4,0.3c0.4,0.2,1,0.2,1.4,0.4c0.1,0,0.2,0,0.3,0.1c0.1,0.1,0.2,0.2,0.2,0.3
		c0.2,0.1,0.5,0.2,0.8,0.2c0.2,0.1,0.2,0.2,0.4,0.3c0.1,0,0.2,0,0.3,0c0.1,0,0.2,0.1,0.3,0.2c0.1,0.1,0.3,0.1,0.4,0.2
		c0.1,0.1,0.1,0.2,0.3,0.3c0.1,0.1,0.3,0.1,0.4,0.1c0.4,0.1,0.7,0.2,1,0.5c0.5,0.4,0.8,0.8,1.4,1.1c0.3,0.1,0.4,0.2,0.6,0.5
		c0.1,0.2,0.2,0.6,0.4,0.6c0.2,0.1,0.4,0.2,0.7,0.2c0.2,0.1,0.1,0.4,0.5,0.4c0,0.1,0,0.1,0,0.1c0.6,0.1,0.7,0.3,1,0.9
		c0.3,0.5,0.7,0.7,1,1.2c0.2,0.4,0.4,1,0.1,1.4c-0.2,0.3-0.5,0-0.8,0.1c-0.1,0.1-0.2,0.3-0.4,0.3c-0.1,0-0.2-0.1-0.4-0.2
		c-0.1-0.1-0.3-0.1-0.4-0.1c-0.4-0.1-0.7-0.1-1.1-0.1c-0.3,0-0.3,0.1-0.5-0.1c-0.2-0.2-0.3-0.2-0.6-0.2c-0.1,0-0.2,0-0.3,0
		c-0.1,0-0.1-0.1-0.2-0.2c-0.2-0.1-0.4,0-0.5-0.1c-0.1-0.1,0-0.1-0.1-0.2c-0.1-0.1-0.1,0-0.2-0.1C50,29.3,50,29.1,49.9,29
		c-0.1-0.1-0.3-0.1-0.5-0.2c-0.3-0.1-0.2-0.3-0.3-0.5c-0.1-0.2-0.4-0.1-0.6-0.3c-0.1-0.1-0.1-0.3-0.1-0.3c-0.2-0.2-0.5-0.1-0.6-0.3
		c-0.2-0.1-0.2-0.4-0.3-0.6c-0.1-0.1-0.2-0.1-0.4-0.1c-0.2-0.1-0.2-0.1-0.3-0.2c-0.2-0.3-0.4-0.7-0.6-0.9c-0.2-0.2-0.4-0.2-0.6-0.3
		C45.2,25,45,24.8,44.9,24.6z"/>
	<g>
		<g>
			<g>
				<path class="st1" d="M83.4,29.5c-0.3-0.2-0.4-0.3-0.4-0.4c-0.7-1.1-0.9-1.4-1.1-1.5c-0.1-0.1-0.3-0.1-0.4,0
					c-0.1,0.1-0.2,0.2-0.2,0.3c0,0.1-0.1,0.4-0.3,1c-0.2,0.6-0.3,1-0.3,1.3c0,0.4,0.1,1.2,1.5,1.2c1.4,0,1.6-0.8,1.6-1.2
					C83.9,30.1,83.7,29.8,83.4,29.5z"/>
				<path class="st1" d="M81.1,33.2c-0.1-0.1-0.3-0.1-0.5,0c-0.7,0.5-1.2,1.2-1.5,1.9c-0.2,0.5-0.4,1.1-0.6,1.5
					c-0.3,0.5-0.5,1-0.8,1.5c-0.3,0.5-0.6,0.9-0.6,1.5c0,0.1,0,0.3,0.1,0.6c0,0.2,0.1,0.3,0.1,0.4c0,0.2,0.2,0.4,0.4,0.4
					c0.8,0,1.1-0.1,1.3-0.1c0.4-0.1,0.8-0.5,1-1c0.2-0.6,0.4-1,0.5-1.3c1.5-3.5,1.5-3.8,1.5-3.9C82,34.2,81.7,33.8,81.1,33.2z"/>
				<path class="st1" d="M70,38.1c-1.3-1.5-2.6-2.9-3.9-4c2.9-1.4,5-2.3,6.1-2.9c8-3.8,11.7-7.1,11.4-10.3c-0.1-0.8-0.5-1.8-2.2-1.8
					c-0.2,0-0.3,0-0.5,0c-1.4,0.1-2.8,0.6-4.4,1.3l-4.6,2.1c-1.5,0.7-2.8,1.1-3.8,1.2c-0.2,0-0.4,0-0.6,0c-0.3,0-0.5,0-0.5-0.1
					c-0.4-0.2-2.4,0.5-2.7,0.8c-0.5,0.6,0.2,1.1,0,1.7c-0.4,1.6-1.2,4.4-2.1,5.5c-0.8,1-2.3,1.9-2.6,3.3c0,0.1,0,0.3,0.1,0.4
					l0.5,0.4c-0.1,0.3-0.4,0.9-1,2c-0.8,1.5-1.2,1.9-1.3,2c-0.1,0.1-0.1,0.2-0.1,0.3c0,0.2,0.1,0.7,0.8,0.8c0.1,0,0.1,0,1,0.1
					c0.1,0,0.1,0,0.2,0c0.7-0.3,1.3-1.2,1.9-2.9c0.4-1.2,1-1.8,1.6-1.9c1.4-0.2,3,1,4.5,3.5c1.4,2.2,2.2,4.1,2.3,5.8
					c0,0.1,0.1,0.2,0.2,0.3c0.1,0.1,0.1,0.1,0.2,0.1c0,0,0,0,0.1,0c2-0.4,2.3-1.6,2.2-2.5C72.6,42,71.7,40.2,70,38.1z M66,31.7
					l-1,0.1h0c0.8-3.6,5.2-6.9,12.8-9.6c0.5-0.2,0.9-0.3,1.3-0.3c0.1,0,0.2,0,0.3,0c0.7,0,0.8,0.3,0.9,0.6c0.1,0.5-0.4,1.6-2.8,3.4
					c-1.3,1-3.2,2.2-5.6,3.5C69,30.8,67.1,31.6,66,31.7z"/>
				<path class="st1" d="M131.8,39.5c-1.3-0.1-2.1-0.5-2.2-0.6c-0.1-0.1-0.3-0.5-0.3-1.3c0-0.1,0.1-0.5,1.1-2.3c0.6-1.1,1-1.8,1.3-3
					c0.1-0.2,0.4-0.8,0.4-1.2c0-0.4-0.7-0.7-1-1c-0.5-0.5-1.3-0.9-1.9-0.9c-0.7,0-1.9,0.4-3.6,1.1c-1.4,0.6-2.5,1.2-3.3,1.7
					c-2.5,1.7-4,3.9-4,6c0,1.5,0.9,2.3,2.4,2.3c0.8,0,1.9-0.2,3.2-0.7c0.5-0.2,2-0.8,3.1-1.4c0.1,0.5,0.3,1.2,0.8,1.7
					c0.8,0.9,1.7,1.4,2.4,1.4c0.5,0,1.6-0.5,1.8-1c0.1-0.2,0-0.5-0.1-0.7C132,39.6,131.9,39.5,131.8,39.5z M128.1,34.7
					c-0.7,1-1.6,2.1-2.6,2.6c-1.1,0.6-2,1-3.3,1c-0.4,0-0.8-0.1-1.1-0.3c-0.3-0.2-0.4-0.4-0.4-0.7c0-0.4,0.3-1.3,1.9-2.8
					c1.5-1.5,3.2-2.9,5.3-3.5c0.5-0.1,1.2-0.3,1.7-0.1c0.4,0.2,0.4,0.4,0.6,0.8c0,0-0.7,0.7-0.7,0.8c-0.3,0.4-0.5,0.8-0.7,1.2
					C128.5,34.2,128.3,34.4,128.1,34.7z"/>
				<path class="st1" d="M156.3,29.6C156.3,29.6,156.2,29.6,156.3,29.6c-0.4-0.2-0.7-0.3-1-0.5c0.9-1.4,1.1-1.7,1.2-1.8
					c0.3-0.6,0.4-1.1,0.4-1.6c0-0.3-0.2-0.6-0.5-1c-0.3-0.3-0.7-0.5-1-0.5c-0.1,0-0.3,0.1-0.3,0.2c-0.7,1.7-1.1,2.7-1.3,3.1
					c-0.5,1-1.2,1.7-1.9,2.2c-0.8,0.5-1.8,0.7-3,0.9c-0.2,0-0.4,0-0.7,0c-0.3,0-0.5,0-0.7,0c-0.4,0-0.8,0.1-1.2,0.2
					c-0.4,0-0.9,0.1-1.2,0.3c-0.6,0.5,0,1.7,0.6,2c0.3,0.2,0.7,0.3,1.1,0.2c0.2,0,0.6-0.1,2.3-0.9c0.6-0.2,1-0.4,1.4-0.4l0.1,0
					l-1.5,1.8c-1.8,2.3-2.7,3.9-2.6,5.1c0.2,1.7,1.7,2.5,4.6,2.5c0.6,0,1.2,0,1.9-0.1c0.6-0.1,3.9-0.5,3.7-1.6
					c-0.2-0.9-1.7-0.3-2.2-0.2c-1.2,0.1-2.2,0.1-3.2,0c-0.9-0.1-2-0.4-2.1-1.1c0-0.5,0.3-1.7,2.2-4.1c1.9-2.4,3-2.9,3.6-3
					c0.2,0,0.6,0,1.1,0.1c1.2,0.2,1.2,0.2,1.3,0.2c0,0,0,0,0,0c0.2,0,0.3-0.2,0.3-0.4l0-0.3C157.2,30.5,156.9,30,156.3,29.6z"/>
				<path class="st1" d="M140.9,31.7c-0.3,0-0.5,0-0.8,0.1c-0.1,0-0.2,0-0.4,0.1l-0.9,0.1c-0.1,0-0.2,0-0.2,0
					c-0.5,0-0.5-0.2-0.5-0.3l0-1.6c0-0.2-0.3-0.6-0.5-0.6l-0.5,0c0,0,0,0-0.1,0c-0.5,0.1-0.9,0.4-1,1.3c-0.2,1-0.4,2.8-0.7,4.2
					c-0.4,1.4-0.9,3.3-1.6,4.6c-0.2,0.3-0.5,0.7-0.4,1c0.2,0.6,1.6,0.7,2.1,0.3c0.3-0.2,0.7-0.8,0.8-1.2c0.2-0.5,0.4-1.1,0.6-1.7
					c0.4-1,0.4-1.5,0.8-2.4c0.3-0.7,0.4-1.6,1.1-1.9c0.8-0.3,2-0.1,2.7,0.3c0.3,0.2,0.7,0.4,1,0.5c0.4,0.1,1.2,0,1.5-0.4
					c0.1-0.1,0.2-0.3,0.2-0.5C143.9,32.4,143,31.7,140.9,31.7z"/>
				<path class="st1" d="M116.2,29.9c-0.2,0-0.6-0.3-3.8,1c-0.8,0.3-2,0.8-2.8,1.2c0.9-1.6,1.8-3.2,2.7-4.8c0.5-0.9,0.8-1.7,1.3-2.6
					c0.1-0.2,0.4-0.7,0.3-1c-0.2-0.3-1.7-0.5-1.9-0.3c-0.6,0.5-1.2,1.6-2,3c-1.1,2.1-1.7,3.1-1.8,3.2c-0.3,0.5-1,1.6-2.2,3.2
					c-1.4,2-2.7,3.7-3.1,4.2c-0.5,0.7-1.3,1.6-1.7,2.3c-0.2,0.3-1.1,1.3-0.3,1.5c0.5,0.1,1.7,0.1,2.1-0.1c0.5-0.3,1.2-1.7,1.6-2.2
					c1.7-2.3,3.1-3.6,4.7-4.4c1.5-0.8,3.5-1.6,5.9-1.9c0,0,0,0.1,0,0.1c0,0.2,0,0.3,0,0.4c0,0.5-0.3,1.5-1.5,3.8
					c-1.1,2-1.6,3.1-1.6,3.8c0,0.8,0.5,1.3,1.3,1.3c0.4,0,1.2-0.5,1.9-0.8c0.1,0,0.2-0.1,0.2-0.2s0-0.2,0-0.3
					c-0.2-0.4-0.4-0.7-0.4-1.1c0-0.3-0.1-0.5,1.2-2.8c1.1-1.9,1.6-3.2,1.6-4c0-0.8-0.3-1.5-0.8-2C116.9,30,116.6,29.9,116.2,29.9z"
					/>
				<path class="st1" d="M100.4,37.7c-0.1-0.1-0.2-0.1-0.3-0.1l-0.5,0c-0.1,0-0.2,0-0.2,0.1l-0.1,0.1c-0.3,0-0.6,0.1-1,0.2
					c-0.5,0.2-0.7,0.3-0.7,0.3c-1.9,0.4-4.3,0.7-7.1,0.7c-1.1,0-2.1-0.2-2.9-0.5c-0.9-0.4-1.4-1-1.4-1.9c0-1.2,1.1-2.4,3.3-3.7
					c2-1.1,3.7-1.7,5.2-1.7c0.1,0,0.1,0,0.2,0c-1,1.2-1.1,1.5-1.1,1.7c0,0.3,0.1,0.6,0.6,0.9c0.3,0.2,0.6,0.3,1,0.3
					c0.7,0,1.3-0.6,1.9-1.7c0.5-0.9,0.7-1.7,0.7-2.3c0-0.6-0.4-1.1-1.2-1.5c-0.1,0-0.2-0.1-0.3,0c-1.6,0.3-3.2,0.8-4.9,1.5
					c-5.1,2-7.6,4.3-7.6,6.9c0,2.5,2.1,3.7,6.3,3.7c1.8,0,3.6-0.2,5.3-0.5c2.2-0.4,3.8-1,4.9-1.8c0.1-0.1,0.2-0.2,0.2-0.3
					C100.6,38,100.6,37.9,100.4,37.7L100.4,37.7z"/>
			</g>
			<g>
				<path class="st2" d="M119.3,47.3H119v-3.4h0.3v1.4c0.1-0.2,0.2-0.3,0.4-0.3c0.2-0.1,0.4-0.1,0.5-0.1c0.2,0,0.4,0,0.5,0.1
					c0.1,0.1,0.3,0.2,0.4,0.3c0.1,0.1,0.2,0.3,0.2,0.4c0,0.2,0.1,0.3,0.1,0.5c0,0.2,0,0.4-0.1,0.5c0,0.2-0.1,0.3-0.2,0.4
					c-0.1,0.1-0.2,0.2-0.4,0.3c-0.2,0.1-0.3,0.1-0.6,0.1c-0.1,0-0.2,0-0.3,0c-0.1,0-0.2-0.1-0.3-0.1c-0.1,0-0.2-0.1-0.2-0.2
					c-0.1-0.1-0.1-0.1-0.2-0.2h0V47.3z M119.3,46.1c0,0.2,0,0.3,0.1,0.4c0,0.1,0.1,0.2,0.2,0.3c0.1,0.1,0.2,0.2,0.3,0.2
					c0.1,0.1,0.2,0.1,0.4,0.1c0.1,0,0.2,0,0.4-0.1c0.1,0,0.2-0.1,0.3-0.2c0.1-0.1,0.1-0.2,0.2-0.3c0-0.1,0.1-0.3,0.1-0.4
					c0-0.2,0-0.3,0-0.4c0-0.1-0.1-0.3-0.2-0.4c-0.1-0.1-0.2-0.2-0.3-0.2c-0.1-0.1-0.3-0.1-0.4-0.1c-0.1,0-0.3,0-0.4,0.1
					c-0.1,0.1-0.2,0.1-0.3,0.2c-0.1,0.1-0.1,0.2-0.2,0.3C119.4,45.8,119.3,45.9,119.3,46.1z"/>
				<path class="st2" d="M122.1,48c0,0,0.1,0,0.1,0c0,0,0.1,0,0.1,0c0.1,0,0.2,0,0.2-0.1c0.1-0.1,0.1-0.1,0.1-0.2
					c0-0.1,0.1-0.1,0.1-0.2c0-0.1,0.1-0.1,0.1-0.2l-1-2.5h0.3l0.9,2.1l0.9-2.1h0.3l-1,2.4c-0.1,0.2-0.1,0.3-0.2,0.4
					c-0.1,0.1-0.1,0.2-0.2,0.3c-0.1,0.1-0.1,0.2-0.2,0.2c-0.1,0-0.2,0.1-0.3,0.1c-0.1,0-0.1,0-0.2,0c0,0-0.1,0-0.1,0V48z"/>
				<path class="st2" d="M125.9,43.9h2.7v0.3h-1.2v3.1H127v-3.1h-1.2V43.9z"/>
				<path class="st2" d="M129.7,45.9c0.1,0,0.1,0,0.2,0c0.1,0,0.1,0,0.2-0.1c0.1,0,0.1-0.1,0.1-0.1c0-0.1,0-0.1,0-0.1
					c0-0.1-0.1-0.3-0.2-0.4c-0.1-0.1-0.3-0.1-0.5-0.1c-0.1,0-0.2,0-0.3,0c-0.1,0-0.2,0-0.2,0.1c-0.1,0-0.1,0.1-0.2,0.2
					c0,0.1-0.1,0.2-0.1,0.3h-0.3c0-0.1,0-0.3,0.1-0.4c0.1-0.1,0.1-0.2,0.2-0.3c0.1-0.1,0.2-0.1,0.3-0.1c0.1,0,0.3,0,0.4,0
					c0.1,0,0.3,0,0.4,0c0.1,0,0.2,0.1,0.3,0.1c0.1,0.1,0.2,0.1,0.2,0.2c0.1,0.1,0.1,0.2,0.1,0.4v1.3c0,0.1,0,0.2,0.1,0.2
					c0,0,0.1,0,0.3,0v0.2c0,0-0.1,0-0.1,0c0,0-0.1,0-0.1,0c0,0-0.1,0-0.1,0c-0.1,0-0.1,0-0.1,0c0,0-0.1-0.1-0.1-0.1c0,0,0-0.1,0-0.1
					c0,0,0-0.1,0-0.1c-0.1,0.1-0.3,0.2-0.4,0.3c-0.2,0.1-0.4,0.1-0.5,0.1c-0.1,0-0.2,0-0.3,0c-0.1,0-0.2-0.1-0.3-0.1
					c-0.1-0.1-0.1-0.1-0.2-0.2c0-0.1-0.1-0.2-0.1-0.3c0-0.4,0.3-0.7,0.9-0.7L129.7,45.9z M130.2,46c-0.1,0.1-0.3,0.1-0.4,0.1
					c-0.1,0-0.3,0-0.4,0c-0.2,0-0.4,0.1-0.6,0.1c-0.1,0.1-0.2,0.2-0.2,0.4c0,0.1,0,0.1,0,0.2c0,0.1,0.1,0.1,0.1,0.1
					c0.1,0,0.1,0.1,0.2,0.1c0.1,0,0.1,0,0.2,0c0.1,0,0.2,0,0.4,0c0.1,0,0.2-0.1,0.3-0.1c0.1-0.1,0.2-0.1,0.2-0.2
					c0.1-0.1,0.1-0.2,0.1-0.3V46z"/>
				<path class="st2" d="M131.3,44.3v-0.4h0.3v0.4H131.3z M131.4,47.3v-2.5h0.3v2.5H131.4z"/>
				<path class="st2" d="M132.6,46.5c0,0.2,0.1,0.4,0.3,0.4c0.1,0.1,0.3,0.1,0.5,0.1c0.1,0,0.2,0,0.3,0c0.1,0,0.1-0.1,0.2-0.1
					c0.1,0,0.1-0.1,0.1-0.1c0-0.1,0-0.1,0-0.2c0-0.1,0-0.2-0.1-0.3c-0.1-0.1-0.2-0.1-0.3-0.1c-0.1,0-0.3-0.1-0.4-0.1
					c-0.1,0-0.3-0.1-0.4-0.1c-0.1,0-0.2-0.1-0.3-0.2c-0.1-0.1-0.1-0.2-0.1-0.4c0-0.2,0.1-0.4,0.2-0.5c0.2-0.1,0.4-0.2,0.7-0.2
					c0.3,0,0.5,0.1,0.7,0.2c0.2,0.1,0.3,0.3,0.3,0.6H134c0-0.2-0.1-0.3-0.2-0.4c-0.1-0.1-0.3-0.1-0.5-0.1c-0.2,0-0.3,0-0.4,0.1
					c-0.1,0.1-0.2,0.2-0.2,0.3c0,0.1,0,0.2,0.1,0.3c0.1,0.1,0.2,0.1,0.3,0.1c0.1,0,0.3,0.1,0.4,0.1c0.1,0,0.3,0.1,0.4,0.1
					c0.1,0.1,0.2,0.1,0.3,0.2c0.1,0.1,0.1,0.2,0.1,0.4c0,0.1,0,0.2-0.1,0.3c-0.1,0.1-0.1,0.2-0.2,0.2c-0.1,0.1-0.2,0.1-0.3,0.1
					c-0.1,0-0.3,0-0.4,0c-0.2,0-0.3,0-0.4-0.1c-0.1,0-0.2-0.1-0.3-0.2c-0.1-0.1-0.2-0.2-0.2-0.3c0-0.1-0.1-0.2-0.1-0.3H132.6z"/>
				<path class="st2" d="M135,47.3v-3.4h0.3v1.3c0.1-0.1,0.3-0.2,0.4-0.3c0.1-0.1,0.3-0.1,0.5-0.1c0.2,0,0.3,0,0.5,0.1
					c0.1,0.1,0.3,0.1,0.4,0.3c0.1,0.1,0.1,0.2,0.1,0.3c0,0.1,0,0.2,0,0.3v1.6h-0.3v-1.6c0-0.2-0.1-0.4-0.2-0.5
					c-0.1-0.1-0.3-0.2-0.5-0.2c-0.1,0-0.2,0-0.3,0c-0.1,0-0.1,0.1-0.2,0.1c-0.1,0-0.1,0.1-0.2,0.2c0,0.1-0.1,0.1-0.1,0.2
					c0,0.1-0.1,0.2-0.1,0.2c0,0.1,0,0.2,0,0.2v1.3H135z"/>
				<path class="st2" d="M137.9,44.3v-0.4h0.3v0.4H137.9z M137.9,47.3v-2.5h0.3v2.5H137.9z"/>
				<path class="st2" d="M139.4,47.3H139v-2.5h0.3v0.3c0.1-0.1,0.3-0.2,0.4-0.3c0.1-0.1,0.3-0.1,0.5-0.1c0.2,0,0.3,0,0.5,0.1
					c0.1,0.1,0.3,0.1,0.4,0.3c0.1,0.1,0.1,0.2,0.1,0.3c0,0.1,0,0.2,0,0.3v1.6h-0.3v-1.6c0-0.2-0.1-0.4-0.2-0.5
					c-0.1-0.1-0.3-0.2-0.5-0.2c-0.1,0-0.2,0-0.3,0c-0.1,0-0.1,0.1-0.2,0.1c-0.1,0-0.1,0.1-0.2,0.2c0,0.1-0.1,0.1-0.1,0.2
					c0,0.1,0,0.2-0.1,0.2c0,0.1,0,0.2,0,0.2V47.3z"/>
				<path class="st2" d="M143.4,47.3v-3.4h1.3c0.2,0,0.4,0,0.6,0.1c0.2,0,0.3,0.1,0.4,0.2c0.1,0.1,0.2,0.2,0.2,0.3
					c0,0.1,0.1,0.2,0.1,0.3c0,0.1,0,0.2-0.1,0.3c0,0.1-0.1,0.2-0.1,0.2c-0.1,0.1-0.1,0.1-0.2,0.1c-0.1,0-0.1,0.1-0.2,0.1v0
					c0.3,0,0.4,0.1,0.6,0.3c0.1,0.2,0.2,0.3,0.2,0.6c0,0.2,0,0.3-0.1,0.4c-0.1,0.1-0.1,0.2-0.2,0.3c-0.1,0.1-0.2,0.1-0.4,0.2
					c-0.1,0-0.3,0.1-0.5,0.1H143.4z M143.7,45.4h0.9c0.2,0,0.3,0,0.5,0c0.1,0,0.2-0.1,0.3-0.1c0.1-0.1,0.1-0.1,0.2-0.2
					c0-0.1,0.1-0.2,0.1-0.3c0-0.1,0-0.2-0.1-0.3c0-0.1-0.1-0.1-0.2-0.2c-0.1,0-0.2-0.1-0.3-0.1c-0.1,0-0.3,0-0.5,0h-0.8V45.4z
					 M143.7,47h0.9c0.2,0,0.4,0,0.5,0c0.1,0,0.3,0,0.4-0.1c0.1-0.1,0.2-0.1,0.2-0.2c0-0.1,0.1-0.2,0.1-0.4c0-0.1,0-0.3-0.1-0.3
					c-0.1-0.1-0.1-0.2-0.2-0.2c-0.1,0-0.2-0.1-0.3-0.1c-0.1,0-0.3,0-0.4,0h-0.9V47z"/>
				<path class="st2" d="M148,45.9c0.1,0,0.1,0,0.2,0c0.1,0,0.1,0,0.2-0.1c0.1,0,0.1-0.1,0.1-0.1c0-0.1,0-0.1,0-0.1
					c0-0.1-0.1-0.3-0.2-0.4c-0.1-0.1-0.3-0.1-0.5-0.1c-0.1,0-0.2,0-0.3,0c-0.1,0-0.2,0-0.2,0.1c-0.1,0-0.1,0.1-0.2,0.2
					c0,0.1-0.1,0.2-0.1,0.3h-0.3c0-0.1,0-0.3,0.1-0.4c0.1-0.1,0.1-0.2,0.2-0.3c0.1-0.1,0.2-0.1,0.3-0.1c0.1,0,0.3,0,0.4,0
					c0.1,0,0.3,0,0.4,0c0.1,0,0.2,0.1,0.3,0.1c0.1,0.1,0.2,0.1,0.2,0.2c0.1,0.1,0.1,0.2,0.1,0.4v1.3c0,0.1,0,0.2,0.1,0.2
					c0,0,0.1,0,0.3,0v0.2c0,0-0.1,0-0.1,0c0,0-0.1,0-0.1,0c0,0-0.1,0-0.1,0c-0.1,0-0.1,0-0.1,0c0,0-0.1-0.1-0.1-0.1c0,0,0-0.1,0-0.1
					c0,0,0-0.1,0-0.1c-0.1,0.1-0.3,0.2-0.4,0.3c-0.2,0.1-0.4,0.1-0.5,0.1c-0.1,0-0.2,0-0.3,0c-0.1,0-0.2-0.1-0.3-0.1
					c-0.1-0.1-0.1-0.1-0.2-0.2c0-0.1-0.1-0.2-0.1-0.3c0-0.4,0.3-0.7,0.9-0.7L148,45.9z M148.5,46c-0.1,0.1-0.3,0.1-0.4,0.1
					c-0.1,0-0.3,0-0.4,0c-0.2,0-0.4,0.1-0.6,0.1c-0.1,0.1-0.2,0.2-0.2,0.4c0,0.1,0,0.1,0,0.2c0,0.1,0.1,0.1,0.1,0.1
					c0.1,0,0.1,0.1,0.2,0.1c0.1,0,0.1,0,0.2,0c0.1,0,0.2,0,0.4,0c0.1,0,0.2-0.1,0.3-0.1c0.1-0.1,0.2-0.1,0.2-0.2
					c0.1-0.1,0.1-0.2,0.1-0.3V46z"/>
				<path class="st2" d="M149.9,47.3h-0.3v-2.5h0.3v0.3c0.1-0.1,0.3-0.2,0.4-0.3c0.1-0.1,0.3-0.1,0.5-0.1c0.2,0,0.3,0,0.5,0.1
					c0.1,0.1,0.3,0.1,0.4,0.3c0.1,0.1,0.1,0.2,0.1,0.3c0,0.1,0,0.2,0,0.3v1.6h-0.3v-1.6c0-0.2-0.1-0.4-0.2-0.5
					c-0.1-0.1-0.3-0.2-0.5-0.2c-0.1,0-0.2,0-0.3,0c-0.1,0-0.2,0.1-0.2,0.1c-0.1,0-0.1,0.1-0.2,0.2c0,0.1-0.1,0.1-0.1,0.2
					c0,0.1-0.1,0.2-0.1,0.2c0,0.1,0,0.2,0,0.2V47.3z"/>
				<path class="st2" d="M152.5,47.3v-3.4h0.3V46l1.3-1.2h0.4l-1,0.9l1.1,1.6h-0.3l-1-1.4l-0.5,0.4v0.9H152.5z"/>
			</g>
		</g>
		<g>
			<path class="st3" d="M32.6,41C32.6,41,32.6,41,32.6,41c-0.1-0.2-0.2-0.3-0.3-0.4c-0.2-0.2-0.4-0.3-0.7-0.2
				c-0.2,0.1-0.3,0.2-0.4,0.4c-0.1,0.1-0.1,0.3-0.1,0.4c0,0.2,0.1,0.3,0.2,0.5c0.1,0.2,0,1-0.3,1.1c-0.1,0-0.3,0-0.3,0
				c-0.2-0.1-0.1-0.2-0.1-0.4c0-0.1-0.3-1-0.5-0.9c-0.2,0.1-0.5,0.3-0.7,0.3c-0.2,0-0.2,0-0.4,0.2c-0.2,0.2-0.4,0.3-0.6,0.5
				c-0.2,0.2-0.3,0.4-0.5,0.6c-0.2,0.2-0.4,0.3-0.4,0.7c-0.3-0.1-0.3,0.1-0.5-0.2c-0.1-0.1-0.1-0.1-0.2-0.2
				c-0.3-0.2-0.5-0.5-0.7-0.8c-0.1-0.2-0.3-0.5-0.6-0.7c-0.2-0.1-0.4,0-0.7-0.2c-0.2-0.1-0.2-0.2-0.4-0.2c-0.2,0-0.5,0-0.7,0
				c-0.6,0.1-0.4,1-0.6,1.4c-0.1,0.1-0.1,0.2-0.2,0.3c0,0.3-0.1,0.6-0.1,0.9c0,0.2,0.1,0.4,0.1,0.6c0,0.1-0.2,0.3-0.1,0.4
				c0,0.2,0.3,0.2,0.4,0.4c0,0.1,0,0.3,0,0.4c0,0.1,0,0.2,0,0.3c0,0.1,0,0.2-0.1,0.3c-0.1,0.1-0.1,0.4-0.1,0.5
				c0,0.3,0.1,0.6,0.2,0.8c0.1,0.1,0.1,0.4,0.3,0.4c0.1,0,0.3-0.2,0.4-0.1c0,0,0,0.1,0,0.1c0.1,0,0.2-0.1,0.3-0.1
				c0.1,0,0.2,0,0.2-0.1c0.1,0,0.2-0.1,0.3-0.2c0.2-0.1,0.4-0.1,0.5-0.2c0.2-0.2,0.4-0.4,0.6-0.6c0.2-0.2,0.3-0.4,0.5-0.5
				c0.1-0.1,0.4-0.1,0.5-0.2c0.1-0.1,0-0.2,0-0.2c0.2-0.3,0.8-0.1,1-0.1c0.1,0,0.3,0.1,0.4,0.2c0.1,0.1,0.2,0.2,0.4,0.2
				c0.2,0,0.3,0.1,0.5,0.2c0.2,0.1,0.3,0,0.5,0c0.3,0,0.3,0.2,0.5,0.3c0.4,0.2,0.8-0.2,1.2-0.2c0,0,0.4-1.2,0.4-1.3
				c0.1-0.3,0.2-0.6,0.3-0.8c0.1-0.2,0.3-0.4,0.3-0.7c0.1-0.5,0.1-1.1,0.2-1.7c0-0.3,0.1-0.7,0.1-1C32.8,41.1,32.8,41.1,32.6,41z
				 M26.7,45.2C26.6,45.2,26.6,45.2,26.7,45.2c-0.1,0.1,0,0.2-0.1,0.3c-0.1,0.1-0.4,0-0.5,0c0-0.1,0-0.2-0.1-0.2
				c0-0.1-0.1-0.1-0.2-0.1c-0.4-0.3-0.2-0.6-0.2-1c0-0.1,0-0.2-0.1-0.3c-0.1-0.1-0.2-0.1-0.2-0.1c-0.1-0.1,0-0.1-0.1-0.1
				c-0.1-0.1-0.2-0.5,0.1-0.4c0-0.1,0-0.2,0.1-0.2c0.1,0.1,0.1,0.2,0.1,0.3c0,0.1,0.1,0,0.2,0.1c0,0.1,0,0.2,0,0.2
				c0,0.2,0.2,0.1,0.2,0.3c0,0.1-0.1,0.2,0,0.3c0,0.1,0.3,0.2,0.3,0.3c0.1,0.1,0.3,0.1,0.5,0.2c0.1,0.1,0.3,0.3,0.2,0.5
				C26.8,45.1,26.7,45.1,26.7,45.2z M30.6,44.5c-0.1,0-0.1,0-0.2,0c0,0,0,0.1-0.1,0.2c0,0-0.1,0.1-0.1,0.1c-0.1,0-0.2-0.1-0.2-0.2
				c-0.1-0.1-0.1-0.3-0.1-0.4c0-0.3,0.1-0.3,0.3-0.4c0.1-0.1,0.2-0.2,0.3-0.3c0.1-0.1,0.1-0.2,0.2-0.1c0.1,0.1,0,0.2,0,0.3
				c0,0.2-0.1,0.4-0.1,0.6C30.7,44.4,30.8,44.5,30.6,44.5z"/>
			<g>
				<path class="st4" d="M45.5,27.1c0.3,0.2,0.5,0.5,0.8,0.8c0.1,0.2,0.1,0.3,0.3,0.4c0.1,0,0.2,0,0.2,0.1c0.1,0.1,0,0.1,0.1,0.2
					c0.1,0.1,0.3,0.1,0.4,0.2c0.1,0.1,0,0.3,0.2,0.4c0.1,0.1,0.3,0.1,0.4,0.2c0.2,0.1,0.1,0.2,0.3,0.3c0.1,0.1,0.3,0.1,0.4,0.2
					c0.1,0.1,0.1,0.2,0.2,0.3c0.1,0.1,0.2,0.1,0.3,0.1c0.3,0.1,0.6,0.2,0.9,0.4c0.2,0.1,0.4,0.2,0.6,0.3c0.2,0.1,0.3,0.2,0.5,0.3
					c0.1,0.1,0.2,0,0.3,0.1c0.3,0.1,0.3,0.3,0.6,0.4c0.3,0,0.3,0,0.4,0.2c0.3,0.3,0.8,0.3,1.2,0.3c0.2,0,0.5,0,0.7,0
					c0.2,0,0.4-0.3,0.7-0.3c0.1,0,0.2,0.1,0.3,0c0.2-0.1,0.2-0.3,0.5-0.4c0.1,0,0.2,0,0.3,0c0.2,0,0.1-0.1,0.2-0.2
					c0.2-0.2,0.6-0.3,0.8-0.6c0.1-0.1,0.3-0.5,0.3-0.7c0-0.2,0-0.3,0-0.4c0-0.1,0.1-0.2,0.1-0.3c0-0.2-0.3-0.3-0.3-0.4
					c0-0.1,0.1-0.2,0-0.3c0-0.1-0.1-0.1-0.2-0.2c-0.1-0.1-0.2-0.1-0.2-0.2c-0.1-0.2,0-0.4-0.1-0.6c-0.1-0.2-0.2-0.3-0.4-0.5
					c-0.2-0.3-0.5-0.5-0.7-0.7c-0.4-0.4-0.6-0.7-1-1.1c-0.3-0.4-0.7-0.7-1.2-1c-0.2-0.1-0.3-0.3-0.5-0.4c-0.2-0.1-0.3,0-0.4-0.2
					c-0.1-0.2-0.1-0.2-0.4-0.3c-0.1-0.3-0.2-0.5-0.5-0.6c-0.2-0.2-0.5-0.3-0.8-0.4c-0.1-0.1-0.2-0.2-0.3-0.3
					c-0.2-0.2-0.5-0.2-0.8-0.3c-0.2-0.1-0.5-0.1-0.8-0.3c-0.1-0.1-0.1-0.2-0.1-0.3c-0.2-0.2-0.5-0.1-0.7-0.1c0.1-0.5-1-0.5-1.3-0.7
					c-0.2-0.1-0.5-0.2-0.8-0.3c-0.3-0.1-0.7-0.2-1-0.3c-0.1-0.1-0.2-0.2-0.4-0.3c-0.2-0.1-0.4-0.1-0.5-0.1c-0.3,0-0.7-0.1-1-0.1
					c0-0.2-0.1-0.2-0.3-0.3c-0.1-0.1-0.3-0.2-0.4-0.2c0,0-0.5,0-0.5,0c0-0.5-1.6-0.8-1.9-0.9c-0.8-0.3-1.8-0.6-2.6-0.8
					c-0.2,0-0.4,0-0.5,0c-0.2-0.1-0.3-0.3-0.5-0.4c-0.2-0.1-0.4-0.1-0.7-0.2c-0.6-0.2-1.2-0.4-1.8-0.5c-0.8-0.1-1.4-0.4-2.2-0.5
					c-0.6-0.1-1.3-0.1-2-0.3c-0.4-0.1-0.8-0.4-1.2-0.5c-0.3-0.1-0.6,0-0.8-0.1c-0.2,0-0.3-0.1-0.5-0.2c-0.2-0.1-0.3,0-0.4-0.1
					c-0.1-0.1-0.1-0.1-0.3-0.2c-0.3,0-0.5,0-0.8,0c-0.4,0-0.9-0.1-1.3-0.2c-0.5-0.1-1-0.5-1.6-0.5c-0.5-0.1-1-0.1-1.5-0.2
					c-0.4-0.1-0.8-0.3-1.1-0.4c-0.5-0.2-1-0.2-1.5-0.3c-0.5-0.2-0.8-0.4-1.3-0.5c-0.2,0-0.3,0-0.5-0.1c-0.1,0-0.3-0.3-0.4-0.3
					c-0.9-0.1-1.8,0.1-2.7,0.5c-0.4,0.2-0.7,0.4-1.1,0.5c-0.1,0.1-0.3,0.1-0.5,0.2c-0.2,0.2-0.1,0.4-0.2,0.6c0,0.1,0,0.3,0,0.4
					C12,14,12,14,12,14.1c0,0.1,0.2,0.2,0.3,0.3c0.1,0.2,0.2,0.4,0.3,0.5c0.1,0.2,0.2,0.5,0.3,0.6c0.1,0.1,0.2,0.1,0.4,0.1
					c0.1,0.1,0.2,0.2,0.2,0.3c0.1,0.3,0.4,0.2,0.6,0.3c0.2,0.1,0.1,0.3,0.3,0.4c0.1,0.1,0.1,0,0.2,0.1c0.1,0,0.2,0.1,0.2,0.2
					c0.1,0.1,0.1,0.2,0.2,0.3c0.1,0,0.1,0,0.2,0c0.1,0,0.1,0.1,0.1,0.2c0.1,0.1,0.3,0.1,0.4,0.2c0.1,0.1,0.2,0.2,0.3,0.2
					c0.1,0,0.1,0.1,0.2,0.1c0.2,0,0.4,0.1,0.6,0.1c0.1,0,0.3,0,0.4,0.1c0.1,0,0.1,0.1,0.2,0.2c0.1,0.1,0.3,0,0.4,0.1
					c0.1,0.1,0.1,0.2,0.2,0.2c0.2,0.1,0.4,0.1,0.6,0.1c0.4,0.1,0.8,0,1.2,0.1c0.5,0,1,0.4,1.5,0.4c0.4,0.1,0.8,0.1,1.2,0.2
					c0.3,0,0.6,0.1,0.9,0.2c0.2,0,0.4,0.1,0.5,0.2c0.3,0.1,0.1,0.2,0.2,0.4c0,0.1,0.1,0.1,0.2,0.1c0.1,0.2,0,0.6-0.1,0.8
					c-0.1,0.2-0.1,0.5-0.2,0.7c-0.1,0.2,0,0.4-0.1,0.6c-0.1,0.2-0.3,0.4-0.5,0.6c-0.2,0.3-0.3,0.5-0.5,0.8c-0.1,0.2-0.2,0.3-0.3,0.5
					c-0.1,0.2-0.1,0.4-0.2,0.5c-0.1,0.1-0.1,0.1-0.2,0.2c-0.1,0.2,0,0.3,0,0.5c-0.1,0.2-0.2,0.3-0.4,0.5c-0.2,0.1-0.4,0.2-0.6,0.3
					c-0.1,0.1-0.1,0.3-0.2,0.4C21,27,20.7,27,20.7,27.2c0,0.1,0,0.2,0,0.2c-0.1,0.1-0.2,0-0.3,0.1c-0.1,0.1,0,0.2-0.1,0.2
					c-0.1,0.1-0.2,0.1-0.2,0.1c-0.1,0.1-0.1,0.2-0.1,0.4c0-0.1-0.3,0-0.3,0.1c0,0.1-0.1,0.3-0.1,0.4c-0.2,0.1-0.3,0.1-0.4,0.2
					c-0.1,0.1-0.1,0.4-0.2,0.5c-0.1,0.1-0.2,0.1-0.3,0.2c-0.2,0.1-0.2,0.1-0.3,0.2c0,0.1-0.3,0.6-0.3,0.6c-0.1,0-0.2,0-0.3,0.1
					c0,0-0.2,0.2-0.2,0.2c-0.2,0-0.4-0.1-0.5,0c-0.1,0.1-0.1,0.2-0.3,0.2c-0.3,0.1-0.7,0-1,0.1c-0.1,0-0.1,0.1-0.1,0.1
					c-0.2,0-0.5-0.1-0.7-0.2c-0.4-0.2-0.8-0.4-1.2-0.7c-0.4-0.3-0.9-0.3-1.3,0c-0.3,0.3-0.5,0.7-0.7,1.1c-0.2,0.4-0.1,0.8-0.2,1.2
					c0,0.1-0.1,0.1-0.2,0.3c-0.1,0.2,0,0.5,0,0.7c0,0.3-0.1,0.5-0.1,0.8c0,0.5,0,1.1,0.2,1.6c0.1,0.4,0.3,1,0.5,1.3
					c0.2,0.3,0.6,0.6,0.9,0.9c0.1,0.1,0.1,0.3,0.2,0.4c0.1,0.1,0.2,0,0.3,0.1c0.1,0,0.2,0.2,0.3,0.2c0.2,0.1,0.4,0,0.6,0.1
					c0.1,0.1,0.1,0.2,0.2,0.2c0.1,0,0.2,0,0.2,0c0.1,0,0,0.2,0.1,0.2c0.1,0,0.2,0,0.3,0.1c0.2,0,0.3,0.1,0.5,0.1
					c0.3,0.1,0.4,0.4,0.7,0.4c0.4,0.1,0.8,0.2,1.1,0.3c0.2,0.1,0.1,0.1,0.2,0.2c0.2,0.3,1,0.2,1.3,0.2c0.6,0.1,1.3,0.2,1.9,0.3
					c0.3,0.1,0.5,0.1,0.8,0.1c0.3,0,0.6-0.1,0.9-0.2c0.2-0.1,0.3-0.2,0.5-0.2c0.2,0,0.3,0,0.5,0c0.1,0,0.1-0.1,0.2-0.1
					c0,0,0.1,0,0.1-0.1c0.2,0,0.3,0,0.5-0.1c0.1,0,0.3-0.1,0.4-0.2c0.2,0,0.3,0,0.5-0.1c0.2-0.1,0.3-0.2,0.5-0.3
					c0.2-0.1,0.5,0,0.7-0.1c0.1,0,0.2,0,0.3-0.1c0.1,0,0.1-0.1,0.2-0.1c0,0,0.1,0,0.1,0c0.1,0,0.2,0,0.2,0c0,0,0.1-0.1,0.1-0.1
					c0,0,0.1,0,0.1,0c0.1,0,0.2,0,0.3,0c0.1,0,0.3,0,0.4-0.1c0.3-0.1,0.6-0.1,0.8-0.2c0.2-0.1,0.4-0.1,0.5-0.3
					c0.1-0.1,0.1-0.2,0.2-0.2c0.1-0.1,0.2,0,0.4-0.1c0.1,0,0.1-0.1,0.2-0.1c0.1-0.1,0.1,0,0.2-0.1c0.2,0,0.1,0,0.3-0.1
					c0.2-0.1,0.5,0,0.7-0.2c0.2-0.1,0.3-0.3,0.5-0.5c0.2-0.2,0.4-0.2,0.7-0.2c0.3-0.1,0.5-0.2,0.6-0.4c0.1-0.1,0.2-0.2,0.3-0.3
					c0.1-0.1,0.2,0,0.3-0.1c0.1,0,0.2-0.1,0.3-0.2c0.1-0.1,0.2-0.1,0.3-0.1c0.2-0.1,0.4-0.3,0.6-0.5c0.2-0.1,0.5-0.2,0.6-0.5
					c0.1-0.3,0.1-0.2,0.3-0.3c0.2-0.1,0.1-0.2,0.2-0.3c0.1-0.2,0.3-0.3,0.5-0.4c0.2-0.1,0.7-0.3,0.7-0.5c0.1-0.2,0.1-0.5,0.3-0.6
					c0.1-0.1,0.3-0.1,0.4-0.3c0.1-0.1,0-0.2,0.1-0.3c0.1-0.1,0.2-0.3,0.2-0.4c0.1-0.1,0.4-0.1,0.5-0.3c0.1-0.1,0-0.3,0.1-0.4
					c0.1-0.1,0.2-0.2,0.2-0.3c0.1-0.1,0.1-0.2,0.1-0.4c0.1-0.2,0.3-0.4,0.5-0.5c0.1-0.1,0.1-0.1,0.2-0.2c0.1-0.1,0.2-0.2,0.3-0.3
					c0.1-0.1,0.1-0.1,0.1-0.2c0.1-0.1,0.2-0.1,0.3-0.2c0,0,0.1-0.2,0.1-0.2c0.1-0.2,0.3-0.2,0.4-0.4c0.1-0.2,0.1-0.4,0.2-0.6
					c0-0.1,0.1-0.1,0.1-0.1c0,0,0.1,0,0.1-0.1c0,0,0-0.1,0-0.1c0.1-0.1,0.2-0.2,0.4-0.2c0.1-0.2,0.1-0.5,0.2-0.7
					c0.1-0.1,0.2-0.2,0.3-0.3c0.1-0.1,0.1-0.3,0.1-0.4c0.1-0.1,0.1-0.2,0.3-0.2c0.2-0.2,0.3-0.6,0.7-0.6c0.2,0,0.4,0.2,0.5,0.3
					c0.2,0.1,0.3,0.4,0.5,0.5c0.1,0.1,0.2,0.2,0.3,0.3c0,0,0.1,0.1,0.2,0.1C45.1,27,45.3,27,45.5,27.1z M44.9,24.6
					c-0.2-0.2-0.3-0.4-0.5-0.6c-0.1-0.2-0.2-0.5-0.4-0.6c-0.1-0.1-0.3-0.2-0.4-0.2c-0.2,0-0.3,0.2-0.5,0.2c-0.3,0.1-0.4,0.1-0.5,0.4
					c-0.1,0.4-0.2,0.8-0.3,1.2c-0.1,0.3-0.2,0.5-0.3,0.8c-0.1,0.3-0.2,0.4-0.5,0.6c-0.2,0.1-0.1,0.2-0.2,0.4
					c-0.1,0.2-0.2,0.2-0.4,0.3c-0.1,0.1-0.1,0.2-0.1,0.2c-0.1,0.1-0.2,0.1-0.3,0.2c-0.1,0.1-0.1,0.3-0.2,0.5
					c-0.1,0.1-0.1,0.1-0.3,0.2c-0.2,0.2-0.2,0.4-0.4,0.6c-0.1,0.1-0.2,0.1-0.3,0.2c0,0.1,0,0.2,0,0.2c0,0.1-0.1,0-0.1,0.1
					c-0.1,0.1-0.1,0.1-0.2,0.2c-0.1,0.3-0.2,0.2-0.4,0.4c-0.1,0.1-0.1,0.3-0.3,0.4c-0.2,0.2-0.4,0.4-0.5,0.6
					c-0.1,0.2-0.2,0.4-0.4,0.6c-0.1,0.1-0.1,0.1-0.2,0.2c0,0.1,0,0.1,0,0.2c-0.1,0.1-0.1,0-0.2,0.1c-0.1,0.1-0.1,0.3-0.3,0.4
					c-0.1,0.1-0.3,0.1-0.3,0.2c-0.1,0.3,0,0.4-0.3,0.4c-0.3,0.1-0.3,0.3-0.5,0.4c-0.1,0.1-0.3,0.1-0.3,0.2c-0.1,0.1-0.1,0.2-0.1,0.3
					c-0.1,0.2-0.3,0.3-0.5,0.4c-0.3,0.2-0.5,0.3-0.7,0.6c-0.2,0.2-0.3,0.1-0.5,0.3c-0.4,0.2-0.6,0.5-0.9,0.8
					c-0.1,0.1-0.1,0.2-0.3,0.3c-0.1,0-0.3,0-0.4,0.1c-0.3,0.1-0.5,0.3-0.6,0.5c-0.2,0.2-0.7,0.1-0.9,0.2c-0.1,0.1-0.1,0.2-0.2,0.2
					c-0.1,0.1-0.3,0-0.4,0.1c-0.1,0-0.3,0.3-0.3,0.3c-0.2,0-0.3-0.1-0.5,0.1c-0.1,0.1-0.2,0.2-0.4,0.2c-0.2,0-0.5,0-0.7,0.1
					c-0.2,0.1-0.2,0.4-0.5,0.4c-0.2,0-0.2,0-0.4,0.1c-0.1,0.1-0.3,0.1-0.4,0.2c-0.1,0-0.3,0-0.4,0c-0.3,0-0.5,0-0.8,0
					c-0.2,0-0.7,0-0.9,0.1c-0.2,0.1-0.2,0.1-0.4,0.1c-0.2,0-0.3,0-0.4,0.2c-0.1,0.2-0.1,0.1-0.3,0.2c-0.2,0-0.6-0.1-0.8,0
					c0,0,0,0.1-0.1,0.1c-0.2,0.1-0.4-0.1-0.7,0c-0.3,0.1-0.4,0.1-0.6,0c-0.2,0-0.5-0.1-0.7-0.1c-0.3,0.1-0.6,0.1-0.9,0.2
					c-0.2,0-0.7,0.1-0.9-0.1c-0.1-0.1-0.1-0.1-0.3-0.1c-0.4-0.1-0.7-0.3-1.1-0.5c-0.1-0.1-0.3,0-0.5-0.1c-0.1,0-0.1-0.1-0.1-0.1
					c-0.1-0.1-0.2-0.1-0.3-0.1c-0.1-0.1-0.2-0.2-0.3-0.3c-0.1,0-0.3,0-0.4,0c-0.2,0-0.5,0-0.7-0.2c0-0.1,0.1-0.1,0-0.2
					c0,0-0.2,0-0.2,0c-0.2-0.1-0.3-0.2-0.5-0.2c-0.2,0-0.5,0.2-0.6,0c0,0,0-0.1,0-0.2c-0.4-0.7-0.1-0.7,0.3-1c0.4-0.3,0.7-0.6,1-0.9
					c0.3-0.3,0.4-0.4,0.3-0.8c0.5-0.1,0.2-1,0.1-1.3c-0.1-0.1-0.2-0.2-0.2-0.3c0-0.2,0.1-0.4,0.3-0.3c0,0,0.1-0.1,0.1-0.1
					c0,0,0.1,0,0.1-0.1c0.1,0,0.1,0,0.2,0c0.1,0,0.2,0,0.4,0c0.1,0,0.1,0,0.2-0.1c0.1-0.1,0.1-0.2,0.2-0.2c0.1,0,0.1,0,0.2,0
					c0.1,0,0-0.1,0-0.1c0-0.4,0.5-0.3,0.8-0.3c0.3-0.1,0.4-0.2,0.6-0.4c0.4-0.4,0.8-0.8,1.2-1.2c0,0,0.2,0,0.3-0.1
					c0.2-0.2,0.2-0.5,0.3-0.7c0.2-0.3,0.4-0.5,0.7-0.8c0.1-0.1,0.2,0,0.3-0.1c0.1-0.1,0.1-0.2,0.1-0.3c0.1-0.1,0.3-0.1,0.4-0.2
					c0.1-0.1,0.2-0.3,0.3-0.5c0.1-0.2,0-0.2,0.2-0.3c0.1-0.1,0.1-0.2,0.2-0.3c0.1-0.2,0.2-0.1,0.4-0.2c0.2-0.1,0.2-0.1,0.3-0.2
					c0.2-0.3,0.4-0.6,0.6-1c0.1-0.1,0.1-0.3,0.2-0.4c0.5-0.5,0.7-0.9,1.1-1.6c0.2-0.4,0.2-0.9,0.5-1.4c0.2-0.3,0.4-0.6,0.5-1
					c0.1-0.4,0-0.5-0.1-0.9c0-0.1,0-0.3,0.1-0.5c0.1-0.1,0.1-0.2,0.1-0.4c0-0.1-0.1-0.3-0.1-0.3c0-0.2,0.1-0.5-0.2-0.5
					c-0.2,0-0.4,0-0.5-0.1c-1.1-0.5-2.4-0.1-3.5-0.7c-0.9-0.5-1.5-0.7-2.6-0.6c-0.2,0-0.3,0-0.5,0c-0.1,0-0.1,0-0.2,0
					c0,0-0.1-0.1-0.1-0.1c0,0-0.1-0.1-0.1-0.1c-0.1,0-0.1-0.1-0.2-0.1c-0.2,0-0.4,0-0.5,0c-0.1,0-0.3,0-0.5,0
					c-0.1,0-0.1-0.1-0.2-0.1c-0.4-0.4-1-0.8-1.5-1c-0.2-0.8-2.4-1.4-1.3-2.4c0.1-0.1,0.2-0.1,0.3-0.2c0.3-0.2,0.7-0.4,1-0.4
					c0.5,0,1,0.2,1.5,0.3c0.2,0.1,0.5,0.1,0.8,0.2c0.2,0.1,0.3,0.2,0.6,0.3c0.3,0.1,0.7,0.1,1,0.3c0.4,0.2,0.8,0.5,1.2,0.5
					c0.2,0,0.4-0.1,0.7-0.1c0.1,0,0.1,0.1,0.2,0.1c0.3,0.1,0.5,0.1,0.8,0.3c0.1,0.1,0.2,0.1,0.3,0.1c0.1,0,0.3,0,0.4,0
					c0.1,0,0.2,0.1,0.3,0.2c0.1,0.1,0.2,0.1,0.4,0.1c0.4,0.1,0.8,0.2,1.1,0.2c0.3,0.1,0.6,0.2,1,0.2c0.6,0,0.9,0.6,1.4,0.7
					c0.3,0,0.5,0,0.8,0.1c0.2,0.1,0.4,0.3,0.7,0.3c0.6,0.1,1.2-0.3,1.9-0.1c0.1,0,0.2,0,0.3,0.1c0.2,0.1,0.2,0.2,0.5,0.3
					c0.2,0,0.4,0.1,0.6,0.1c0.3,0.1,0.7,0.1,1,0.2c0.4,0.1,0.8,0.4,1.2,0.5c0.8,0.2,1.5,0.2,2.3,0.5c0.9,0.4,1.8,0.8,2.7,1.1
					c0.4,0.1,0.7,0.2,1.1,0.3c0.3,0.1,0.6,0.3,0.9,0.4c0.1,0,0.2,0,0.3,0.1c0.1,0.1,0.2,0.2,0.3,0.2c0.1,0,0.2-0.1,0.3,0
					c0.1,0,0.1,0.1,0.1,0.2c0.2,0.1,0.3,0.1,0.5,0.2c0.1,0,0.2,0,0.3,0.1c0.1,0,0.1,0.1,0.2,0.2c0.1,0,0.3,0,0.4,0
					c0.3,0.1,0.6,0.2,0.9,0.3c0.2,0.1,0.2,0.2,0.4,0.3c0.4,0.2,1,0.2,1.4,0.4c0.1,0,0.2,0,0.3,0.1c0.1,0.1,0.2,0.2,0.2,0.3
					c0.2,0.1,0.5,0.2,0.8,0.2c0.2,0.1,0.2,0.2,0.4,0.3c0.1,0,0.2,0,0.3,0c0.1,0,0.2,0.1,0.3,0.2c0.1,0.1,0.3,0.1,0.4,0.2
					c0.1,0.1,0.1,0.2,0.3,0.3c0.1,0.1,0.3,0.1,0.4,0.1c0.4,0.1,0.7,0.2,1,0.5c0.5,0.4,0.8,0.8,1.4,1.1c0.3,0.1,0.4,0.2,0.6,0.5
					c0.1,0.2,0.2,0.6,0.4,0.6c0.2,0.1,0.4,0.2,0.7,0.2c0.2,0.1,0.1,0.4,0.5,0.4c0,0.1,0,0.1,0,0.1c0.6,0.1,0.7,0.3,1,0.9
					c0.3,0.5,0.7,0.7,1,1.2c0.2,0.4,0.4,1,0.1,1.4c-0.2,0.3-0.5,0-0.8,0.1c-0.1,0.1-0.2,0.3-0.4,0.3c-0.1,0-0.2-0.1-0.4-0.2
					c-0.1-0.1-0.3-0.1-0.4-0.1c-0.4-0.1-0.7-0.1-1.1-0.1c-0.3,0-0.3,0.1-0.5-0.1c-0.2-0.2-0.3-0.2-0.6-0.2c-0.1,0-0.2,0-0.3,0
					c-0.1,0-0.1-0.1-0.2-0.2c-0.2-0.1-0.4,0-0.5-0.1c-0.1-0.1,0-0.1-0.1-0.2c-0.1-0.1-0.1,0-0.2-0.1C50,29.3,50,29.1,49.9,29
					c-0.1-0.1-0.3-0.1-0.5-0.2c-0.3-0.1-0.2-0.3-0.3-0.5c-0.1-0.2-0.4-0.1-0.6-0.3c-0.1-0.1-0.1-0.3-0.1-0.3
					c-0.2-0.2-0.5-0.1-0.6-0.3c-0.2-0.1-0.2-0.4-0.3-0.6c-0.1-0.1-0.2-0.1-0.4-0.1c-0.2-0.1-0.2-0.1-0.3-0.2
					c-0.2-0.3-0.4-0.7-0.6-0.9c-0.2-0.2-0.4-0.2-0.6-0.3C45.2,25,45,24.8,44.9,24.6z"/>
				<path class="st4" d="M28.2,24c-0.2-0.1-0.3,0-0.5,0c-0.1,0-0.3,0-0.4,0.1c0,0,0,0.2,0,0.2c-0.1,0-0.2,0.1-0.4,0.1
					c-0.2,0.1-0.2,0.6-0.2,0.8c0,0.1,0,0.3,0,0.4c0,0.1,0,0.2,0.1,0.3c0.1,0.1,0.2,0.1,0.3,0.1c0.2,0,0.5,0,0.6-0.1
					c0.1-0.1,0.2-0.2,0.3-0.3c0.1-0.1,0.1-0.1,0.2-0.2c0.1-0.1,0.2-0.1,0.3-0.3c0-0.1,0-0.3,0-0.5c0-0.2,0-0.3-0.1-0.4
					C28.3,24.2,28.3,24,28.2,24z"/>
				<path class="st4" d="M35,25.2c0,0,0-0.1,0-0.1c0,0-0.1,0-0.1,0c-0.1,0-0.2,0-0.3,0c-0.1,0-0.2,0-0.3,0c0,0-0.1,0-0.1,0
					c0,0-0.1,0.1-0.1,0.1c-0.1,0.1-0.1,0.2-0.2,0.3c-0.1,0.1-0.2,0.2-0.3,0.3c-0.1,0-0.1,0.1-0.2,0.1c-0.1,0-0.1,0-0.1,0.1
					c0,0.1,0,0.2,0,0.2c0,0.1,0,0.2,0,0.3c0,0.1,0.1,0.2,0.1,0.3c0,0.1,0,0.2,0.2,0.2c0.1,0,0.2,0,0.3,0c0.1,0,0.2,0,0.2,0
					c0,0,0.1,0,0.1,0c0-0.1,0-0.1,0.1-0.1c0.1,0,0.2,0,0.2-0.1c0.1,0,0.2-0.1,0.2-0.1c0.1-0.1,0.1-0.1,0.1-0.2c0,0,0.1-0.1,0.2-0.1
					c0.1,0,0.1-0.1,0.2-0.1c0-0.1,0-0.2,0-0.3c0-0.1,0-0.3,0-0.4c0-0.2-0.1-0.3-0.2-0.4C35,25.3,35,25.3,35,25.2z"/>
			</g>
		</g>
	</g>
	<rect x="0.2" class="st5" width="167.9" height="60"/>
</g>
</svg>
